<svg width="24" height="24" fill="none" xmlns="http://www.w3.org/2000/svg"><path d="M20 7H4a2 2 0 00-2 2v10c0 1.1.9 2 2 2h16a2 2 0 002-2V9a2 2 0 00-2-2z" stroke="#FFA438" stroke-width="1.5" stroke-linecap="round" stroke-linejoin="round"/><path d="M16 7.29V5a2 2 0 00-2-2h-4a2 2 0 00-2 2v2.29m12.64 0v2.66c0 .61-.45 1.2-1.26 1.64-.81.44-1.91.68-3.06.68H7.68a6.62 6.62 0 01-3.06-.68c-.8-.44-1.26-1.03-1.26-1.64V7.29" stroke="#FFA438" stroke-width="1.5" stroke-linejoin="round"/><path d="M10.44 14h3.12" stroke="#FFA438" stroke-width="1.5" stroke-linecap="round"/></svg>