<svg width="22" height="22" fill="none" xmlns="http://www.w3.org/2000/svg"><path d="M16.79 13.87v-7.2M5.13 13.43V6.67M1.56 20.55l5.58-5.1m-5.58 5.1c.36.3 1.3.25 1.45.24h16.24a.4.4 0 00.04 0c.13-.01.82-.1 1.06-.5m-18.79.26c-.21-.17-.17-1.35-.16-1.48V10.5m18.95 9.77c-2.19-1.91-5.63-4.83-5.63-4.83m5.63 4.83a3.48 3.48 0 00.25-1.63v-7.4s0-.43-.16-.74m0 0l-5.72 4.94m5.72-4.94a5.06 5.06 0 00-.6-.85l-3.05-2.99M1.4 10.51l5.74 4.94M1.4 10.51c0-.33.7-.98.75-1.02v-.01l2.98-2.8m0 0v-2.1c0-.28.22-.5.5-.5H7.7m0 0l2.86-2.45a.5.5 0 01.64 0l2.93 2.44m-6.43 0h6.43m2.65 2.6v-2.1a.5.5 0 00-.5-.5h-2.15m-7 11.38l3.41-3.17a.5.5 0 01.68 0l3.5 3.17" stroke="#FFA438" stroke-width="1.5"/></svg>