<svg width="24" height="24" fill="none" xmlns="http://www.w3.org/2000/svg"><path d="M20.67 11.78l.53.16.13.04a2.12 2.12 0 011.37 1.7c.2 1.39-.24 3.08-1.42 5.12-1.17 2.02-2.41 3.25-3.72 3.78a2.13 2.13 0 01-2.25-.43l-.4-.38-.08-.08a1 1 0 01-.05-1.24l1-1.4.06-.06a.63.63 0 01.64-.18l1.54.47.03.01h.02l.04.01.05.01h.13c.18-.02.32-.1.42-.18.1-.08.2-.17.3-.29.21-.23.44-.55.68-.96.26-.47.44-.86.53-1.17.04-.15.07-.3.07-.46a.73.73 0 00-.22-.52l-.78-.73-.08-.08a1.37 1.37 0 01-.24-1.5l.5-1.09.04-.09a1 1 0 011.16-.46z" stroke="#FFA438"/><path d="M12.27 18.9H6.35a.4.4 0 01-.4-.4v-2.19a2.4 2.4 0 012.4-2.4h5.16c.3 0 .67.11 1.07.33.4.21.77.5 1.04.79.27.3.38.52.4.63a.51.51 0 01-.1.04c-.18.05-.45.13-.78.41a7.14 7.14 0 01-.52.4l-.56.41a3.8 3.8 0 00-1.13 1.37c-.2.43-.47.62-.66.62z" stroke="#FFA438" stroke-width="1.2"/><path fill-rule="evenodd" clip-rule="evenodd" d="M1.64 5.8a3 3 0 013-3h14.48a3 3 0 013 3v3.16h-1.2V5.79c0-1-.8-1.8-1.8-1.8H4.64c-1 0-1.8.8-1.8 1.8v10.67c0 1 .8 1.8 1.8 1.8h4.24v1.2H4.64a3 3 0 01-3-3V5.79z" fill="#FFA438"/><path d="M13.15 8.95a2.45 2.45 0 11-4.9 0 2.45 2.45 0 014.9 0z" stroke="#FFA438" stroke-width="1.2"/></svg>