<svg width="16" height="16" fill="none" xmlns="http://www.w3.org/2000/svg"><path d="M8.38 13.86a.5.5 0 00.5-.5v-.77c0-.28.23-.5.5-.5h1.66a.5.5 0 00.5-.5v-.77a.5.5 0 00-.5-.5H9.38a.5.5 0 01-.5-.5v-.1c0-.24.16-.43.38-.51.6-.23 1.12-.6 1.53-1.14.5-.63.75-1.36.75-2.17 0-.98-.35-1.82-1.04-2.5A3.41 3.41 0 008 2.35c-.98 0-1.81.34-2.5 1.03-.7.7-1.04 1.53-1.04 2.5 0 .82.25 1.55.75 2.18.41.53.93.91 1.53 1.14.22.08.38.27.38.5v.11a.5.5 0 01-.5.5H4.96a.5.5 0 00-.5.5v.77c0 .28.22.5.5.5h1.66c.27 0 .5.22.5.5v.77c0 .28.22.5.5.5h.76zM8 4.13c.49 0 .9.17 1.25.51.35.35.52.77.52 1.26 0 .48-.17.9-.52 1.25A1.7 1.7 0 018 7.67c-.49 0-.9-.18-1.25-.52a1.7 1.7 0 01-.52-1.25c0-.5.17-.91.52-1.26A1.7 1.7 0 018 4.13z" fill="#1E1D2E"/></svg>