<svg width="15" height="18" fill="none" xmlns="http://www.w3.org/2000/svg"><path d="M7.8.35c.9-.02 1.8 0 2.7-.02a4.46 4.46 0 0 0 1.21 2.96 4.84 4.84 0 0 0 2.94 1.27V7.4a7.23 7.23 0 0 1-4.03-1.35c0 2.07 0 4.14-.02 6.2a5.47 5.47 0 0 1-.93 2.8 5.13 5.13 0 0 1-6.92 1.54A5.35 5.35 0 0 1 .2 11.5 5.35 5.35 0 0 1 2 7.99a5.08 5.08 0 0 1 4.26-1.23c.01 1.05-.03 2.1-.03 3.15a2.37 2.37 0 0 0-3.04 1.5c-.14.36-.1.76-.09 1.14.17 1.17 1.26 2.14 2.43 2.04.77-.01 1.51-.47 1.92-1.14.13-.24.27-.48.28-.76.07-1.26.04-2.52.05-3.8L7.79.36Z" fill="#2F93E1"/></svg>