<svg width="30" height="30" fill="none" xmlns="http://www.w3.org/2000/svg"><path d="M24.45 9.15c-.68.33-1.42.55-2.2.64.8-.5 1.4-1.3 1.69-2.25a7.4 7.4 0 0 1-2.44.99 3.64 3.64 0 0 0-4.61-.8 3.99 3.99 0 0 0-1.69 1.9 4.31 4.31 0 0 0-.23 2.62A10.4 10.4 0 0 1 10.59 11a11.05 11.05 0 0 1-3.53-3.02 4.27 4.27 0 0 0 1.19 5.44c-.61-.02-1.21-.2-1.74-.51v.05c0 .94.3 1.85.86 2.58a3.8 3.8 0 0 0 2.21 1.42c-.56.16-1.15.18-1.73.07.25.8.72 1.52 1.37 2.02.64.51 1.42.8 2.22.8a7.42 7.42 0 0 1-5.68 1.7 10.4 10.4 0 0 0 5.88 1.83c7.05 0 10.91-6.21 10.91-11.6l-.01-.53c.75-.57 1.4-1.29 1.91-2.1Z" fill="#2F93E1"/></svg>