<svg width="19" height="19" fill="none" xmlns="http://www.w3.org/2000/svg"><path d="M9.44 6.6a2.98 2.98 0 000 5.94 2.98 2.98 0 000-5.95zm8.93 2.97c0-1.23 0-2.45-.06-3.69-.07-1.42-.4-2.7-1.44-3.74C15.82 1.1 14.56.77 13.13.7 11.9.63 10.67.64 9.44.64S7 .64 5.76.7a5.3 5.3 0 00-3.74 1.44C.97 3.2.65 4.46.58 5.88.5 7.12.52 8.34.52 9.57s-.01 2.45.06 3.68A5.3 5.3 0 002.02 17c1.05 1.05 2.31 1.38 3.74 1.44 1.23.07 2.45.06 3.68.06 1.24 0 2.46.01 3.69-.06A5.3 5.3 0 0016.87 17c1.05-1.04 1.37-2.3 1.44-3.74.07-1.23.06-2.45.06-3.68zm-8.93 4.58A4.57 4.57 0 119.43 5a4.57 4.57 0 01.01 9.15zm4.77-8.28a1.07 1.07 0 110-2.13 1.07 1.07 0 010 2.13z" fill="#2F93E1"/></svg>