<svg width="24" height="24" fill="none" xmlns="http://www.w3.org/2000/svg"><path d="M20 16.75H4c-.69 0-1.25-.56-1.25-1.25V9c0-.69.56-1.25 1.25-1.25h16c.69 0 1.25.56 1.25 1.25v6.5c0 .69-.56 1.25-1.25 1.25z" stroke="#606483" stroke-width="1.5"/><path d="M18.75 15.5H5.25a.77.77 0 01-.75-.75c0-.4.35-.75.75-.75h13.5c.4 0 .75.35.75.75s-.35.75-.75.75z" fill="#606483"/><path d="M5.5 15.53h13V22h-13v-6.47z" fill="#fff" stroke="#606483" stroke-width="1.5" stroke-linecap="round" stroke-linejoin="round"/><path d="M5.5 3.2h13v4.44h-13V3.2z" stroke="#606483" stroke-width="1.5" stroke-linecap="round" stroke-linejoin="round"/><path stroke="#606483" stroke-width="1.5" stroke-linecap="round" d="M8.54 18.65h6.92"/></svg>