<svg width="30" height="30" fill="none" xmlns="http://www.w3.org/2000/svg"><path d="M15.47 15.12c-2.47 0-4.53-1.99-4.53-4.35a4.5 4.5 0 014.53-4.44c2.56 0 4.53 2 4.53 4.44 0 1.16-.49 2.27-1.33 3.09-.85.81-2 1.27-3.19 1.27h-.01zm0-6.22c-1.05 0-1.84.85-1.84 1.87s.8 1.8 1.84 1.8c1.09 0 1.84-.78 1.84-1.8s-.75-1.87-1.84-1.87zm1.8 9.85l2.56 2.4c.5.53.5 1.3 0 1.79-.54.53-1.38.53-1.8 0l-2.56-2.44L13 22.94c-.25.24-.59.36-.97.36-.29 0-.63-.12-.92-.36-.5-.5-.5-1.26 0-1.8l2.6-2.4c-.94-.26-1.84-.65-2.68-1.13-.63-.33-.75-1.14-.42-1.75.42-.61 1.17-.77 1.85-.37a5.92 5.92 0 006.03 0c.67-.4 1.47-.24 1.84.37.38.6.21 1.42-.38 1.75-.79.49-1.71.85-2.68 1.14z" fill="#2F93E1"/></svg>