<svg width="15" height="16" fill="none" xmlns="http://www.w3.org/2000/svg"><path d="M6.23.82a3.4 3.4 0 1 0 0 6.79 3.4 3.4 0 0 0 0-6.79ZM2 8.46a1.7 1.7 0 0 0-1.71 1.7c0 1.43.7 2.51 1.8 3.22a7.76 7.76 0 0 0 4.14 1.02c.35 0 .69-.02 1.02-.05a4.65 4.65 0 0 1 .04-5.9H2Z" fill="#fff"/><path d="M10.9 15.24a3.82 3.82 0 1 0 0-7.63 3.82 3.82 0 0 0 0 7.63Zm0-5.94a.42.42 0 0 1 .42.43V11h1.27a.42.42 0 1 1 0 .85h-1.27v1.27a.42.42 0 1 1-.85 0v-1.27H9.2a.42.42 0 0 1 0-.85h1.27V9.73a.42.42 0 0 1 .42-.43Z" fill="#fff"/></svg>