<svg xmlns="http://www.w3.org/2000/svg">
  <symbol viewBox="0 0 18 22" id="icon-note">
    <path d="M10 1v7h7" stroke-width="1.5" stroke-linecap="round" stroke-linejoin="round"/>
    <path d="M10 1H3a2 2 0 0 0-2 2v16a2 2 0 0 0 2 2h12a2 2 0 0 0 2-2V8l-7-7Z" stroke-width="1.5" stroke-linecap="round" stroke-linejoin="round"/>
  </symbol>
  <symbol viewBox="0 0 18 18" id="icon-download">
    <path d="M17.02 11.67v3.57a1.78 1.78 0 0 1-1.78 1.78H2.76a1.78 1.78 0 0 1-1.78-1.78v-3.57M4.54 7.22 9 11.67l4.46-4.45M9 11.67V.98" stroke-width="1.5" stroke-linecap="round" stroke-linejoin="round"/>
  </symbol>
  <symbol viewBox="0 0 24 24" id="icon-print">
    <path d="M20 16.75H4c-.69 0-1.25-.56-1.25-1.25V9c0-.69.56-1.25 1.25-1.25h16c.69 0 1.25.56 1.25 1.25v6.5c0 .69-.56 1.25-1.25 1.25Z" stroke-width="1.5"/>
    <path d="M18.75 15.5H5.25a.77.77 0 0 1-.75-.75c0-.4.35-.75.75-.75h13.5c.4 0 .75.35.75.75s-.35.75-.75.75Z" fill="#606483"/>
    <path d="M5.5 15.53h13V22h-13v-6.47Z" fill="#fff" stroke-width="1.5" stroke-linecap="round" stroke-linejoin="round"/>
    <path d="M5.5 3.2h13v4.44h-13V3.2Z" stroke-width="1.5" stroke-linecap="round" stroke-linejoin="round"/>
    <path stroke-width="1.5" stroke-linecap="round" d="M8.54 18.65h6.92"/>
  </symbol>
  <symbol viewBox="0 0 22 21" id="icon-heart">
    <path d="m10.25 3.85.75.85.75-.85a5.57 5.57 0 0 1 4.13-1.87 4.83 4.83 0 0 1 4.96 4.8c0 1.66-.75 3.24-2.3 5.09-1.56 1.86-3.82 3.84-6.63 6.33L11 19l-.91-.8c-2.81-2.48-5.07-4.47-6.63-6.33-1.55-1.85-2.3-3.43-2.3-5.09 0-2.67 2.15-4.8 4.96-4.8 1.6 0 3.13.73 4.13 1.87Z" stroke="currentColor" stroke-width="2"/>
  </symbol>
  <symbol viewBox="0 0 12 14" id="arrow-forward">
    <path d="m3.38 1.75 4.54 4.54a1 1 0 0 1 0 1.42l-4.54 4.54" stroke="currentColor" stroke-width="2" stroke-linecap="round" stroke-linejoin="round"/>
  </symbol>
  <symbol viewBox="0 0 14 7" id="arrow-list">
    <path d="m1.7.75 4.6 4.6a1 1 0 0 0 1.4 0l4.6-4.6" stroke="#606483" stroke-width="1.5" stroke-linecap="round" stroke-linejoin="round"/>
  </symbol>
  <symbol viewBox="0 0 19 19" id="icon-insta">
    <path d="M9.44 6.6a2.98 2.98 0 0 0 0 5.94 2.98 2.98 0 0 0 0-5.95Zm8.93 2.97c0-1.23 0-2.45-.06-3.69-.07-1.42-.4-2.7-1.44-3.74C15.82 1.1 14.56.77 13.13.7 11.9.63 10.67.64 9.44.64S7 .64 5.76.7a5.3 5.3 0 0 0-3.74 1.44C.97 3.2.65 4.46.58 5.88.5 7.12.52 8.34.52 9.57s-.01 2.45.06 3.68A5.3 5.3 0 0 0 2.02 17c1.05 1.05 2.31 1.38 3.74 1.44 1.23.07 2.45.06 3.68.06 1.24 0 2.46.01 3.69-.06A5.3 5.3 0 0 0 16.87 17c1.05-1.04 1.37-2.3 1.44-3.74.07-1.23.06-2.45.06-3.68Zm-8.93 4.58A4.57 4.57 0 1 1 9.43 5a4.57 4.57 0 0 1 .01 9.15Zm4.77-8.28a1.07 1.07 0 1 1 0-2.13 1.07 1.07 0 0 1 0 2.13Z" fill="currentColor"/>
  </symbol>
  <symbol viewBox="0 0 19 13" id="icon-youtube">
    <path d="M18.57 2.46c-.1-.36-.3-.69-.6-.94-.28-.27-.64-.46-1.03-.56C15.47.6 9.6.6 9.6.6 7.17.57 4.72.69 2.3.95c-.4.1-.75.3-1.05.56-.28.26-.5.6-.6.95a20.66 20.66 0 0 0-.38 4.08c-.01 1.37.12 2.74.38 4.09.1.35.31.68.6.94.29.26.65.45 1.05.55 1.48.37 7.31.37 7.31.37 2.45.02 4.9-.1 7.33-.35.39-.1.75-.29 1.04-.55.29-.27.5-.6.6-.95.26-1.34.4-2.71.38-4.08.02-1.38-.1-2.75-.39-4.1ZM7.75 9.09v-5.1l4.87 2.55L7.75 9.1Z" fill="currentColor"/>
  </symbol>
  <symbol viewBox="0 0 20 12" id="icon-vk">
    <path d="M3.62.04H.28c.15 7.44 3.96 11.9 10.64 11.9h.38V7.7a5.99 5.99 0 0 1 5.06 4.25h3.46a9.47 9.47 0 0 0-5.01-5.96A9.1 9.1 0 0 0 19.09.04h-3.15c-.68 2.36-2.7 4.5-4.64 4.7V.05H8.15V8.3C6.2 7.8 3.73 5.49 3.62.04Z" fill="currentColor"/>
  </symbol>
  <symbol viewBox="0 0 9 17" id="icon-fb">
    <path d="M5.6 16.94V9.58h2.51l.37-2.88H5.61V4.87c0-.83.23-1.4 1.43-1.4h1.53V.9C7.83.82 7.08.78 6.34.79 4.13.79 2.6 2.12 2.6 4.59v2.1H.12v2.89h2.5v7.36H5.6Z" fill="currentColor"/>
  </symbol>
  <symbol viewBox="0 0 19 17" id="icon-tg">
    <path d="M17.33.9.87 7.46c-1.12.47-1.12 1.12-.2 1.4l4.22 1.37 9.78-6.39c.46-.3.88-.14.53.18l-7.92 7.41L7 15.96c.43 0 .62-.2.86-.44l2.05-2.07 4.27 3.27c.78.44 1.35.21 1.54-.76l2.8-13.69c.3-1.19-.43-1.73-1.18-1.38Z" fill="currentColor"/>
  </symbol>
  <symbol viewBox="0 0 29 29" id="icon-tw">
    <path d="M24.45 9.15c-.68.33-1.42.55-2.2.64.8-.5 1.4-1.3 1.69-2.25a7.4 7.4 0 0 1-2.44.99 3.64 3.64 0 0 0-4.61-.8 3.99 3.99 0 0 0-1.69 1.9 4.31 4.31 0 0 0-.23 2.62A10.4 10.4 0 0 1 10.59 11a11.05 11.05 0 0 1-3.53-3.02 4.27 4.27 0 0 0 1.19 5.44c-.61-.02-1.21-.2-1.74-.51v.05c0 .94.3 1.85.86 2.58a3.8 3.8 0 0 0 2.21 1.42c-.56.16-1.15.18-1.73.07.25.8.72 1.52 1.37 2.02.64.51 1.42.8 2.22.8a7.42 7.42 0 0 1-5.68 1.7 10.4 10.4 0 0 0 5.88 1.83c7.05 0 10.91-6.21 10.91-11.6l-.01-.53c.75-.57 1.4-1.29 1.91-2.1Z" fill="currentColor"/>
  </symbol>
  <symbol viewBox="0 0 29 29" id="icon-ok">
    <path d="M15.47 15.12c-2.47 0-4.53-1.99-4.53-4.35a4.5 4.5 0 0 1 4.53-4.44c2.56 0 4.53 2 4.53 4.44 0 1.16-.49 2.27-1.33 3.09-.85.81-2 1.27-3.19 1.27h-.01Zm0-6.22c-1.05 0-1.84.85-1.84 1.87s.8 1.8 1.84 1.8c1.09 0 1.84-.78 1.84-1.8s-.75-1.87-1.84-1.87Zm1.8 9.85 2.56 2.4c.5.53.5 1.3 0 1.79-.54.53-1.38.53-1.8 0l-2.56-2.44L13 22.94c-.25.24-.59.36-.97.36-.29 0-.63-.12-.92-.36-.5-.5-.5-1.26 0-1.8l2.6-2.4c-.94-.26-1.84-.65-2.68-1.13-.63-.33-.75-1.14-.42-1.75.42-.61 1.17-.77 1.85-.37a5.92 5.92 0 0 0 6.03 0c.67-.4 1.47-.24 1.84.37.38.6.21 1.42-.38 1.75-.79.49-1.71.85-2.68 1.14Z" fill="currentColor"/>
  </symbol>
  <symbol viewBox="0 0 15 18" id="icon-tiktok">
    <path d="M7.8.35c.9-.02 1.8 0 2.7-.02a4.46 4.46 0 0 0 1.21 2.96 4.84 4.84 0 0 0 2.94 1.27V7.4a7.23 7.23 0 0 1-4.03-1.35c0 2.07 0 4.14-.02 6.2a5.47 5.47 0 0 1-.93 2.8 5.13 5.13 0 0 1-6.92 1.54A5.35 5.35 0 0 1 .2 11.5 5.35 5.35 0 0 1 2 7.99a5.08 5.08 0 0 1 4.26-1.23c.01 1.05-.03 2.1-.03 3.15a2.37 2.37 0 0 0-3.04 1.5c-.14.36-.1.76-.09 1.14.17 1.17 1.26 2.14 2.43 2.04.77-.01 1.51-.47 1.92-1.14.13-.24.27-.48.28-.76.07-1.26.04-2.52.05-3.8L7.79.36Z" fill="currentColor"/>
  </symbol>
</svg>
