<svg width="17" height="17" fill="none" xmlns="http://www.w3.org/2000/svg"><path d="M13.21 8.55a1 1 0 0 1 1.17-.47l.35.1.1.04a1.75 1.75 0 0 1 1.13 1.4c.15 1.03-.18 2.24-.98 3.62s-1.68 2.28-2.65 2.67a1.75 1.75 0 0 1-1.86-.36l-.27-.25-.06-.07a1 1 0 0 1-.06-1.25l.68-.94.04-.05a.75.75 0 0 1 .79-.22l1.02.31h.05c.12 0 .37-.26.68-.79.34-.58.4-.93.31-1.02l-.52-.48-.07-.07a1.25 1.25 0 0 1-.22-1.36l.34-.74.03-.07ZM5.07 13.55h3.28c.55 0 .98-.49 1.3-.94.34-.45.87-.73 1.2-1.02 1.04-.9-.4-2.17-1.76-2.17H7.07a3 3 0 0 0-3 3v.13a1 1 0 0 0 1 1Z" fill="#107EDC"/><path fill-rule="evenodd" clip-rule="evenodd" d="M1.59 4.4c0-1.1.9-2 2-2h9.66a2 2 0 0 1 2 2v2.12h-.8V4.4c0-.66-.54-1.2-1.2-1.2H3.59c-.66 0-1.2.54-1.2 1.2v7.12c0 .66.54 1.2 1.2 1.2h2.83v.8H3.59a2 2 0 0 1-2-2V4.4Z" fill="#107EDC"/><circle cx="7.64" cy="6.51" r="2.03" fill="#107EDC"/></svg>