<svg width="19" height="13" fill="none" xmlns="http://www.w3.org/2000/svg"><path d="M18.57 2.46c-.1-.36-.3-.69-.6-.94-.28-.27-.64-.46-1.03-.56C15.47.6 9.6.6 9.6.6 7.17.57 4.72.69 2.3.95c-.4.1-.75.3-1.05.56-.28.26-.5.6-.6.95a20.66 20.66 0 0 0-.38 4.08c-.01 1.37.12 2.74.38 4.09.1.35.31.68.6.94.29.26.65.45 1.05.55 1.48.37 7.31.37 7.31.37 2.45.02 4.9-.1 7.33-.35.39-.1.75-.29 1.04-.55.29-.27.5-.6.6-.95.26-1.34.4-2.71.38-4.08.02-1.38-.1-2.75-.39-4.1ZM7.75 9.09v-5.1l4.87 2.55L7.75 9.1Z" fill="#2F93E1"/></svg>