<svg width="16" height="16" fill="none" xmlns="http://www.w3.org/2000/svg"><path d="M12.9 3.8h-2.1v-.7A2.1 2.1 0 0 0 8.7 1H7.3a2.1 2.1 0 0 0-2.1 2.1v.7H3.1A2.1 2.1 0 0 0 1 5.9v6.3a2.1 2.1 0 0 0 2.1 2.1h9.8a2.1 2.1 0 0 0 2.1-2.1V5.9a2.1 2.1 0 0 0-2.1-2.1Zm-6.3-.7a.7.7 0 0 1 .7-.7h1.4a.7.7 0 0 1 .7.7v.7H6.6v-.7Zm7 9.1a.7.7 0 0 1-.7.7H3.1a.7.7 0 0 1-.7-.7V8.66h2.1v.74a.7.7 0 1 0 1.4 0v-.74h4.2v.74a.7.7 0 1 0 1.4 0v-.74h2.1v3.54Zm0-4.9H2.4V5.9a.7.7 0 0 1 .7-.7h9.8a.7.7 0 0 1 .7.7v1.4Z" fill="#C4CDDF"/></svg>