<svg width="18" height="20" fill="none" xmlns="http://www.w3.org/2000/svg"><path fill-rule="evenodd" clip-rule="evenodd" d="M5.95 2.44a.63.63 0 0 0-.81-.13l-1.47.91c-1.16.72-1.7 1.96-1.33 3.1.52 1.6 1.48 3.8 3.23 6.16a19.71 19.71 0 0 0 5.35 4.93c1.11.69 2.58.39 3.55-.72l1.15-1.33c.21-.24.2-.6 0-.83l-1.9-2.04a.63.63 0 0 0-.74-.13l-1.84.94a.82.82 0 0 1-.72 0 7.85 7.85 0 0 1-2.66-2.38c-.7-.93-1.25-1.88-1.53-2.47a.82.82 0 0 1 .07-.84l1.57-2.13a.63.63 0 0 0-.02-.78l-1.9-2.26ZM4.28.92c.95-.59 2.2-.39 2.92.47l1.9 2.26c.67.8.7 1.95.09 2.8L7.92 8.16c.27.5.67 1.14 1.14 1.76a7.22 7.22 0 0 0 1.73 1.71l1.45-.74c.9-.46 2-.26 2.69.48l1.88 2.04c.79.85.8 2.15.04 3.02l-1.15 1.32c-1.39 1.59-3.72 2.24-5.64 1.03a21.35 21.35 0 0 1-5.8-5.33A23.25 23.25 0 0 1 .78 6.82c-.65-2 .37-3.96 2.02-4.99l1.47-.9Z" fill="#FFA438"/></svg>