<svg width="60" height="45" fill="none" xmlns="http://www.w3.org/2000/svg"><ellipse cx="30.74" cy="22.18" rx="22.32" ry="22" fill="#E7EEF6"/><path d="M48.95 32.08V14c0-.8-.66-1.46-1.47-1.46H23.96c-.8 0-1.47.66-1.47 1.46v18.1h26.46v-.01z" fill="#7991BE"/><path d="M51.48 12.54h-4.5c.81 0 1.47.66 1.47 1.46v18.1h4.5V14c0-.81-.65-1.46-1.47-1.46z" fill="#606483"/><path d="M48.95 15.36H26.3a.97.97 0 00-.98.97V31.2h23.62V15.36z" fill="#fff"/><path d="M50.1 31.18V16.33a.97.97 0 00-.97-.97h-.68V31.2h1.66z" fill="#F3F6F8"/><path d="M51.15 32.9v-1.72h-30.2c-.5 0-.9.4-.9.88a3.16 3.16 0 003.18 3.15h25.6a2.3 2.3 0 002.32-2.3z" fill="#7991BE"/><path d="M54.5 31.18h-3.62v1.72c0 1.27-1.04 2.3-2.32 2.3h3.66c1.75 0 3.16-1.4 3.16-3.14 0-.48-.4-.88-.88-.88zm-22.16 0c0 1.12.9 2.02 2.02 2.02h6.71c1.12 0 2.03-.91 2.03-2.02H32.34z" fill="#606483"/><path d="M40.32 16.4h-1.98c-.98 0-1.77.8-1.77 1.76v1.68l.35.25h3.55v-3.42l-.15-.26z" fill="#F9CC5D"/><path d="M44.2 25.52l-2.53-.73h-3.96l-2.53.73a2.1 2.1 0 00-1.53 2.02v3.55h12.1v-3.55a2.13 2.13 0 00-1.54-2.02z" fill="#E7EEF6"/><path d="M44.2 25.52l-2.53-.73h-1.96l.01.99 1.99.6a2.1 2.1 0 011.53 2.02v2.7h2.5v-3.55a2.1 2.1 0 00-1.53-2.03z" fill="#D8DEEB"/><path d="M40.08 27.2h-.77l-.7 3.87v.01h2.17l-.7-3.89z" fill="#606483"/><path d="M41.09 24.95v-2.2H38.3v2.2c0 .76 1.39.82 1.39.82s1.39-.06 1.39-.82z" fill="#FFDDCE"/><path d="M44.03 31.08v-1.22a.29.29 0 00-.3-.29c-.16 0-.29.13-.29.3v1.21h.59z" fill="#B9CBEA"/><path d="M42.05 17.43h-.03a.25.25 0 01-.25-.26.77.77 0 00-.77-.76h-.68v3.7h2.14l.36-.26V18.2a.77.77 0 00-.77-.76z" fill="#F7BD3C"/><path d="M37.76 24.63l-.4.17c-.23.1-.28.4-.1.57l1.1 1.08c.13.14.35.15.5.02l.86-.71-1.47-1.08a.53.53 0 00-.5-.05zm3.36.07l-1.4 1.07.8.68c.15.13.37.12.51-.01l1.1-1.06a.34.34 0 00-.1-.57l-.4-.18a.5.5 0 00-.5.07z" fill="#B9CBEA"/><path d="M39.72 25.77l-.85.7.43.72h.77l.43-.76-.78-.66z" fill="#606483"/><path d="M35.95 31.08v-1.22a.29.29 0 00-.29-.29.3.3 0 00-.3.3v1.21h.6z" fill="#B9CBEA"/><path d="M40.47 21.38v-2.75c-.7.13-1.41.08-2.1-.13a.57.57 0 00-.73.53v.29c0 .29-.24.53-.54.53h-.53v.87c0 .21.18.4.4.4.07 0 .13.05.13.12a2.57 2.57 0 002.1 2.35 2.66 2.66 0 001.27-2.21z" fill="#FFDDCE"/><path d="M42.29 19.84a.54.54 0 01-.54-.53v-.29a.57.57 0 00-.74-.53c-.23.07-.46.13-.7.16v2.68a2.57 2.57 0 01-1.32 2.2c.22.06.46.08.7.08 1.37 0 2.5-1.05 2.59-2.39 0-.07.06-.12.13-.12a.4.4 0 00.4-.4v-.86h-.52z" fill="#FFCBBE"/><path d="M39.42 10.6h-1.17v1.93h1.17V10.6z" fill="#606483"/><path d="M41.44 9.43a2.6 2.6 0 01-5.21 0 2.6 2.6 0 012.6-2.59c1.45 0 2.6 1.15 2.6 2.59z" fill="#B6C2DA"/><path d="M40.05 9.43c0 .67-.54 1.2-1.22 1.2a1.21 1.21 0 110-2.4c.68 0 1.22.53 1.22 1.2z" fill="#606483"/><path d="M39.41 9.43c0 .32-.25.57-.58.57a.58.58 0 110-1.15c.33 0 .58.26.58.58z" fill="#1E1D2E"/><path opacity=".7" d="M39.49 8.99a.2.2 0 01-.21.21.2.2 0 01-.22-.21c0-.12.1-.21.22-.21s.2.1.2.21z" fill="#fff"/><path opacity=".1" d="M41.44 9.43a2.6 2.6 0 00-2.6-2.59v5.18a2.6 2.6 0 002.6-2.6z" fill="#D8DEEB"/><path d="M26.26 8.12h-4.22a3.25 3.25 0 00-3.27 3.22v3.1l2.75 5.08 5.1.64V9.02l-.36-.9z" fill="#CB7B4F"/><path d="M28.88 10h-.05a.48.48 0 01-.48-.48c0-.78-.63-1.4-1.42-1.4h-.68v11.97l2.05-.89 1.99-4.75v-3.06c0-.78-.63-1.4-1.4-1.4z" fill="#B65D37"/><path d="M33.55 29.22c0-1.53-1-2.87-2.48-3.33l-3.98-1.94-1.53-.59-1.02-.03-4.76.16-4.36 1.36a3.5 3.5 0 00-2.48 3.33v11.79c0 .7.58 1.28 1.3 1.28h19.31V29.22z" fill="#FFA04F"/><path d="M33.65 24.85L29.3 23.5l-4.05-.14-1.68-.32 7 3.11a3.5 3.5 0 012.47 3.33v11.8h1.78c.73 0 1.3-.57 1.3-1.28V28.2c0-1.53-1-2.88-2.47-3.34z" fill="#EF8B35"/><path d="M27.2 23.24v-3.32h-5.34v3.32l2.67.09 2.67-.1z" fill="#FFCBBE"/><path d="M27.88 18.99c-.97 0-5.61.21-6-.07h.03c-.68-.22-2.16-4.47-2.16-4.47h-.98v1.59c0 .4.33.73.74.73.13 0 .24.1.25.23a4.73 4.73 0 003.72 4.3c1.81-.7 4.4-2.31 4.4-2.31z" fill="#FFCBBE"/><path d="M29.32 14.45s-.9 4.43-1.93 4.57c-.25.03-2.04.12-2.27.18 0 0-.24 1.36-2.11 1.98A4.75 4.75 0 0029.3 17a.25.25 0 01.25-.23c.41 0 .75-.33.75-.74v-1.6h-.99z" fill="#FFCBBE"/><path d="M24.53 25.26l-1.43 1.2a.8.8 0 01-1.16-.11l-2.18-2.87.79-.67c.38-.33.96-.32 1.33.02l2.65 2.43z" fill="#FFA04F"/><path d="M24.64 21.52l-.17 1.62c.02.46.65.8 1.12.76l3.6-.38-.03-1.02a.98.98 0 00-.92-.95l-3.6-.03z" fill="#EF8B35"/><path d="M21.04 21.54a.99.99 0 00-.92.95l-.04 1.03 3.61.37c.47.05.97-.3.99-.76l-.04-1.62-3.6.03z" fill="#FFA04F"/><path d="M30.52 33.8a.46.46 0 11.91 0v7.45h-.91V33.8zm-13.68.02a.46.46 0 01.92 0v7.46h-.92v-7.46z" fill="#EF8B35"/><path d="M47.97 18.86a1 1 0 001.02-1 1 1 0 00-1.02-1 1 1 0 00-1.01 1 1 1 0 001.01 1z" fill="#DD636E"/></svg>